<svg width="108" height="18" viewBox="0 0 108 18" fill="none" xmlns="http://www.w3.org/2000/svg">
<path d="M57.1748 9.02447C55.558 8.67172 54.6467 8.49534 54.6467 7.81924C54.6467 7.20193 55.1759 6.76099 56.2635 6.76099C57.263 6.76099 57.9685 7.20193 58.4388 7.90743L60.7904 6.55522C59.791 5.29121 58.4388 4.52692 56.3223 4.52692C53.6179 4.52692 51.8541 6.11429 51.8541 7.96622C51.8541 10.2885 53.9118 10.847 55.7638 11.2291C57.1748 11.5231 58.3212 11.6995 58.3212 12.4638C58.3212 13.1399 57.7039 13.669 56.5869 13.669C55.4404 13.669 54.5585 13.1693 54.0588 12.1992L51.5602 13.6396C52.4714 15.1388 54.0882 15.9913 56.4693 15.9913C59.644 15.9913 61.1726 14.0511 61.1726 12.3462C61.1432 9.99453 58.9973 9.40661 57.1748 9.02447Z" fill="#B1B8C0"/>
<path d="M47.1214 9.02447C45.5047 8.67172 44.5934 8.49534 44.5934 7.81924C44.5934 7.20193 45.1225 6.76099 46.2102 6.76099C47.2096 6.76099 47.9151 7.20193 48.3854 7.90743L50.7371 6.55522C49.7376 5.29121 48.3854 4.52692 46.2689 4.52692C43.5645 4.52692 41.8008 6.11429 41.8008 7.96622C41.8008 10.2885 43.8585 10.847 45.7104 11.2291C47.1214 11.5231 48.2679 11.6995 48.2679 12.4638C48.2679 13.1399 47.6505 13.669 46.5335 13.669C45.3871 13.669 44.5052 13.1693 44.0055 12.1992L41.5068 13.6396C42.4181 15.1388 44.0349 15.9913 46.4159 15.9913C49.5907 15.9913 51.1192 14.0511 51.1192 12.3462C51.1192 9.99453 48.944 9.40661 47.1214 9.02447Z" fill="#B1B8C0"/>
<path d="M35.1279 4.52692C31.9532 4.52692 29.3958 7.08435 29.3958 10.2591C29.3958 13.4338 31.9532 15.9913 35.1279 15.9913C38.3027 15.9913 40.8601 13.4338 40.8601 10.2591C40.8601 7.08435 38.3321 4.52692 35.1279 4.52692ZM35.1279 13.3162C33.4524 13.3162 32.0708 11.964 32.0708 10.2591C32.0708 8.55413 33.423 7.20193 35.1279 7.20193C36.8035 7.20193 38.1851 8.55413 38.1851 10.2591C38.1851 11.964 36.8329 13.3162 35.1279 13.3162Z" fill="#B1B8C0"/>
<path d="M26.4856 13.1987C25.7507 13.1987 25.2804 12.7871 25.2804 11.6113V7.26073H28.6903V4.7327H25.251V0.676086L22.429 2.32225V4.79149H20.1361V7.31953H22.429V11.9053C22.429 14.9036 23.84 16.0501 26.1622 16.0501C27.1911 16.0501 28.5727 15.4328 29.2782 14.933L27.9554 12.6402C27.5732 12.8165 26.8383 13.1987 26.4856 13.1987Z" fill="#B1B8C0"/>
<path d="M66.258 4.1448V4.99728H64.2297V6.46707H66.258V15.8737H67.8748V6.46707H70.8144V4.99728H67.9042V4.1448C67.9042 1.88133 68.2864 1.55797 70.4616 1.55797H70.8438V0H70.3441C67.1987 0 66.258 0.881873 66.258 4.1448Z" fill="#B1B8C0"/>
<path d="M80.9265 6.90801C80.074 5.5558 78.4279 4.76212 76.8405 4.76212C73.8127 4.76212 71.3141 7.11378 71.3141 10.4061C71.3141 13.6984 73.7833 16.0501 76.8405 16.0501C78.3985 16.0501 80.0446 15.227 80.8971 13.9042V15.8443H82.5139V4.96789H80.9265V6.90801ZM76.9875 14.5215C74.6946 14.5215 72.9896 12.7872 72.9896 10.3767C72.9896 8.05444 74.724 6.2319 76.9875 6.2319C79.3097 6.2319 81.0441 8.11323 81.0441 10.3767C81.0441 12.699 79.3097 14.5215 76.9875 14.5215Z" fill="#B1B8C0"/>
<path d="M90.2744 14.5215C87.9815 14.5215 86.2178 12.6696 86.2178 10.4061C86.2178 8.11324 87.9521 6.2907 90.2156 6.2907C91.8911 6.2907 93.2139 7.20197 93.8607 8.70115L95.3598 8.02505C94.5074 6.08493 92.626 4.73273 90.245 4.73273C87.0702 4.73273 84.5716 7.17257 84.5716 10.3767C84.5716 13.4927 87.0408 16.0207 90.2744 16.0207C92.773 16.0207 94.5662 14.6097 95.448 12.6108L93.9194 11.9641C93.3021 13.4045 92.0381 14.5215 90.2744 14.5215Z" fill="#B1B8C0"/>
<path d="M108 10.2885C108 7.08438 105.648 4.76212 102.474 4.76212C99.2107 4.76212 96.8002 7.26075 96.8002 10.4649C96.8002 13.6396 99.0637 16.0795 102.532 16.0795C104.913 16.0795 106.471 15.08 107.588 13.3457L106.177 12.4932C105.413 13.816 104.267 14.5803 102.532 14.5803C100.24 14.5803 98.6522 13.1105 98.3876 11.0528H107.971V10.2885H108ZM98.4464 9.58302C98.8285 7.6429 100.387 6.2319 102.474 6.2319C104.59 6.2319 106.06 7.52532 106.324 9.58302H98.4464Z" fill="#B1B8C0"/>
<path fill-rule="evenodd" clip-rule="evenodd" d="M0 8.67173C0 4.08599 3.73326 0.323334 8.34839 0.323334C12.9635 0.323334 16.6968 4.08599 16.6968 8.67173C16.6968 13.2869 12.9635 17.0201 8.34839 17.0201C3.73326 17.0201 0 13.2869 0 8.67173ZM12.4638 10.068C12.0817 11.626 10.3767 12.8312 8.34839 12.8312C6.32009 12.8312 4.64453 11.6554 4.23299 10.068C4.1448 9.7153 4.49755 9.36255 4.93849 9.36255H11.7289C12.1992 9.39194 12.552 9.7153 12.4638 10.068ZM10.5531 7.5841C11.1704 7.5841 11.6701 7.08437 11.6701 6.46706C11.6701 5.84975 11.1704 5.35002 10.5531 5.35002C9.93576 5.35002 9.43604 5.84975 9.43604 6.46706C9.43604 7.08437 9.93576 7.5841 10.5531 7.5841ZM7.44241 6.46706C7.44241 7.08437 6.94269 7.5841 6.32538 7.5841C5.70807 7.5841 5.20834 7.08437 5.20834 6.46706C5.17894 5.84975 5.67867 5.35002 6.32538 5.35002C6.97208 5.35002 7.44241 5.84975 7.44241 6.46706Z" fill="#B1B8C0"/>
</svg>
